<svg width="78" height="90" viewBox="0 0 78 90" fill="none" xmlns="http://www.w3.org/2000/svg">
<path d="M7.42953 81.0032L0.421875 0H77.4219L70.4049 80.9904L38.8751 90L7.42953 81.0032Z" fill="#E44F26"/>
<path d="M38.9219 83.1151L64.4014 75.8347L70.3955 6.62474H38.9219V83.1151Z" fill="#F1662A"/>
<path d="M38.9217 36.665H26.1663L25.2868 26.4918H38.9217V16.5565H14.752L14.9827 19.2243L17.3498 46.6004H38.9217V36.665Z" fill="#EBEBEB"/>
<path d="M38.9217 62.4663L38.8781 62.4791L28.1436 59.4931L27.4575 51.5699H17.7803L19.1307 67.1656L38.8781 72.8163L38.9217 72.8034V62.4663Z" fill="#EBEBEB"/>
<path d="M38.8877 36.6653V46.6007H50.7574L49.6409 59.4867L38.8877 62.476V72.8132L58.6507 67.1657L58.7942 65.4878L61.0583 39.3332L61.2954 36.6653H38.8877Z" fill="white"/>
<path d="M38.8877 16.5565V26.4918H62.1717L62.3651 24.2611L62.8048 19.2243L63.0356 16.5565H38.8877Z" fill="white"/>
</svg>
